<mxfile host="app.diagrams.net" agent="Mozilla/5.0 (Windows NT 10.0; Win64; x64) AppleWebKit/537.36 (KHTML, like Gecko) Chrome/128.0.0.0 YaBrowser/24.10.0.0 Safari/537.36" version="24.8.4">
  <diagram name="Page-1" id="4hVG4dQeRwmelo8VIRlG">
    <mxGraphModel dx="1427" dy="1493" grid="1" gridSize="10" guides="1" tooltips="1" connect="1" arrows="1" fold="1" page="1" pageScale="1" pageWidth="827" pageHeight="1169" math="0" shadow="0">
      <root>
        <mxCell id="0" />
        <mxCell id="1" parent="0" />
        <mxCell id="elKCPwu552f6HBRbaKEP-1" value="Основные элементы программного кода" style="shape=table;startSize=30;container=1;collapsible=0;childLayout=tableLayout;" vertex="1" parent="1">
          <mxGeometry x="50" y="20" width="290" height="443" as="geometry" />
        </mxCell>
        <mxCell id="elKCPwu552f6HBRbaKEP-2" value="" style="shape=tableRow;horizontal=0;startSize=0;swimlaneHead=0;swimlaneBody=0;strokeColor=inherit;top=0;left=0;bottom=0;right=0;collapsible=0;dropTarget=0;fillColor=none;points=[[0,0.5],[1,0.5]];portConstraint=eastwest;" vertex="1" parent="elKCPwu552f6HBRbaKEP-1">
          <mxGeometry y="30" width="290" height="103" as="geometry" />
        </mxCell>
        <mxCell id="elKCPwu552f6HBRbaKEP-3" value="Создание чисел" style="shape=partialRectangle;html=1;whiteSpace=wrap;connectable=0;strokeColor=inherit;overflow=hidden;fillColor=none;top=0;left=0;bottom=0;right=0;pointerEvents=1;" vertex="1" parent="elKCPwu552f6HBRbaKEP-2">
          <mxGeometry width="290" height="103" as="geometry">
            <mxRectangle width="290" height="103" as="alternateBounds" />
          </mxGeometry>
        </mxCell>
        <mxCell id="elKCPwu552f6HBRbaKEP-4" value="" style="shape=tableRow;horizontal=0;startSize=0;swimlaneHead=0;swimlaneBody=0;strokeColor=inherit;top=0;left=0;bottom=0;right=0;collapsible=0;dropTarget=0;fillColor=none;points=[[0,0.5],[1,0.5]];portConstraint=eastwest;" vertex="1" parent="elKCPwu552f6HBRbaKEP-1">
          <mxGeometry y="133" width="290" height="104" as="geometry" />
        </mxCell>
        <mxCell id="elKCPwu552f6HBRbaKEP-5" value="&quot;Выравнивание чисел&quot;" style="shape=partialRectangle;html=1;whiteSpace=wrap;connectable=0;strokeColor=inherit;overflow=hidden;fillColor=none;top=0;left=0;bottom=0;right=0;pointerEvents=1;" vertex="1" parent="elKCPwu552f6HBRbaKEP-4">
          <mxGeometry width="290" height="104" as="geometry">
            <mxRectangle width="290" height="104" as="alternateBounds" />
          </mxGeometry>
        </mxCell>
        <mxCell id="elKCPwu552f6HBRbaKEP-6" value="" style="shape=tableRow;horizontal=0;startSize=0;swimlaneHead=0;swimlaneBody=0;strokeColor=inherit;top=0;left=0;bottom=0;right=0;collapsible=0;dropTarget=0;fillColor=none;points=[[0,0.5],[1,0.5]];portConstraint=eastwest;" vertex="1" parent="elKCPwu552f6HBRbaKEP-1">
          <mxGeometry y="237" width="290" height="103" as="geometry" />
        </mxCell>
        <mxCell id="elKCPwu552f6HBRbaKEP-7" value="Функция одной итерации ускоренного сложения чисел (на вход: два массива, на выход: два массива)" style="shape=partialRectangle;html=1;whiteSpace=wrap;connectable=0;strokeColor=inherit;overflow=hidden;fillColor=none;top=0;left=0;bottom=0;right=0;pointerEvents=1;" vertex="1" parent="elKCPwu552f6HBRbaKEP-6">
          <mxGeometry width="290" height="103" as="geometry">
            <mxRectangle width="290" height="103" as="alternateBounds" />
          </mxGeometry>
        </mxCell>
        <mxCell id="elKCPwu552f6HBRbaKEP-8" value="" style="shape=tableRow;horizontal=0;startSize=0;swimlaneHead=0;swimlaneBody=0;strokeColor=inherit;top=0;left=0;bottom=0;right=0;collapsible=0;dropTarget=0;fillColor=none;points=[[0,0.5],[1,0.5]];portConstraint=eastwest;" vertex="1" parent="elKCPwu552f6HBRbaKEP-1">
          <mxGeometry y="340" width="290" height="103" as="geometry" />
        </mxCell>
        <mxCell id="elKCPwu552f6HBRbaKEP-9" value="Основная часть" style="shape=partialRectangle;html=1;whiteSpace=wrap;connectable=0;strokeColor=inherit;overflow=hidden;fillColor=none;top=0;left=0;bottom=0;right=0;pointerEvents=1;" vertex="1" parent="elKCPwu552f6HBRbaKEP-8">
          <mxGeometry width="290" height="103" as="geometry">
            <mxRectangle width="290" height="103" as="alternateBounds" />
          </mxGeometry>
        </mxCell>
        <mxCell id="elKCPwu552f6HBRbaKEP-10" value="&lt;p style=&quot;line-height: 110%;&quot;&gt;&lt;span style=&quot;font-weight: 400;&quot;&gt;Функция одной итерации ускоренного сложения чисел (на вход: два массива array1 и array2 и их длина len; на выход: два массива). Функция изменяет массивы&lt;/span&gt;&lt;/p&gt;" style="swimlane;whiteSpace=wrap;html=1;" vertex="1" parent="1">
          <mxGeometry x="700" y="10" width="550" height="550" as="geometry">
            <mxRectangle x="440" y="150" width="610" height="30" as="alternateBounds" />
          </mxGeometry>
        </mxCell>
        <mxCell id="elKCPwu552f6HBRbaKEP-34" value="" style="edgeStyle=orthogonalEdgeStyle;rounded=0;orthogonalLoop=1;jettySize=auto;html=1;" edge="1" parent="elKCPwu552f6HBRbaKEP-10" source="elKCPwu552f6HBRbaKEP-11" target="elKCPwu552f6HBRbaKEP-28">
          <mxGeometry relative="1" as="geometry" />
        </mxCell>
        <mxCell id="elKCPwu552f6HBRbaKEP-11" value="Цикл с последнего элемента до первого: array1_new[i] = (array1[i] + array2[i]) % 2&lt;br&gt;И если (array1[i] + array2[i]) &amp;gt; 1, то array2_new[i-1] = 1; иначе array2_new[i-1] = 0" style="shape=hexagon;perimeter=hexagonPerimeter2;whiteSpace=wrap;html=1;fixedSize=1;" vertex="1" parent="elKCPwu552f6HBRbaKEP-10">
          <mxGeometry x="152.5" y="250" width="220" height="190" as="geometry" />
        </mxCell>
        <mxCell id="elKCPwu552f6HBRbaKEP-28" value="&lt;div&gt;array1 = array1_new&lt;/div&gt;array2 = array2_new" style="whiteSpace=wrap;html=1;" vertex="1" parent="elKCPwu552f6HBRbaKEP-10">
          <mxGeometry x="202.5" y="467" width="120" height="60" as="geometry" />
        </mxCell>
        <mxCell id="elKCPwu552f6HBRbaKEP-30" style="edgeStyle=orthogonalEdgeStyle;rounded=0;orthogonalLoop=1;jettySize=auto;html=1;exitX=0.5;exitY=1;exitDx=0;exitDy=0;entryX=0.5;entryY=0;entryDx=0;entryDy=0;" edge="1" parent="elKCPwu552f6HBRbaKEP-10" source="elKCPwu552f6HBRbaKEP-26" target="elKCPwu552f6HBRbaKEP-32">
          <mxGeometry relative="1" as="geometry">
            <mxPoint x="263.82758620689674" y="150" as="targetPoint" />
          </mxGeometry>
        </mxCell>
        <mxCell id="elKCPwu552f6HBRbaKEP-26" value="Создать копии массивов array1_new и array2_new&lt;div&gt;&lt;br&gt;&lt;/div&gt;" style="whiteSpace=wrap;html=1;" vertex="1" parent="elKCPwu552f6HBRbaKEP-10">
          <mxGeometry x="197.5" y="40" width="132.5" height="70" as="geometry" />
        </mxCell>
        <mxCell id="elKCPwu552f6HBRbaKEP-33" value="" style="edgeStyle=orthogonalEdgeStyle;rounded=0;orthogonalLoop=1;jettySize=auto;html=1;" edge="1" parent="elKCPwu552f6HBRbaKEP-10" source="elKCPwu552f6HBRbaKEP-32" target="elKCPwu552f6HBRbaKEP-11">
          <mxGeometry relative="1" as="geometry" />
        </mxCell>
        <mxCell id="elKCPwu552f6HBRbaKEP-32" value="array2_new[len-1] = 0;" style="whiteSpace=wrap;html=1;" vertex="1" parent="elKCPwu552f6HBRbaKEP-10">
          <mxGeometry x="203.75" y="160" width="120" height="60" as="geometry" />
        </mxCell>
        <mxCell id="elKCPwu552f6HBRbaKEP-12" value="" style="shape=link;html=1;rounded=0;exitX=1;exitY=0.5;exitDx=0;exitDy=0;entryX=0;entryY=0.5;entryDx=0;entryDy=0;" edge="1" parent="1" source="elKCPwu552f6HBRbaKEP-6" target="elKCPwu552f6HBRbaKEP-10">
          <mxGeometry width="100" relative="1" as="geometry">
            <mxPoint x="580" y="360" as="sourcePoint" />
            <mxPoint x="430" y="310" as="targetPoint" />
          </mxGeometry>
        </mxCell>
        <mxCell id="elKCPwu552f6HBRbaKEP-13" value="Main part" style="swimlane;whiteSpace=wrap;html=1;" vertex="1" parent="1">
          <mxGeometry x="-180" y="720" width="735" height="790" as="geometry" />
        </mxCell>
        <mxCell id="elKCPwu552f6HBRbaKEP-14" style="edgeStyle=orthogonalEdgeStyle;rounded=0;orthogonalLoop=1;jettySize=auto;html=1;exitX=0;exitY=1;exitDx=0;exitDy=0;" edge="1" parent="elKCPwu552f6HBRbaKEP-13" source="elKCPwu552f6HBRbaKEP-18">
          <mxGeometry relative="1" as="geometry">
            <mxPoint x="105" y="270" as="targetPoint" />
          </mxGeometry>
        </mxCell>
        <mxCell id="elKCPwu552f6HBRbaKEP-15" value="Да" style="edgeLabel;html=1;align=center;verticalAlign=middle;resizable=0;points=[];" vertex="1" connectable="0" parent="elKCPwu552f6HBRbaKEP-14">
          <mxGeometry x="-0.0796" y="-2" relative="1" as="geometry">
            <mxPoint as="offset" />
          </mxGeometry>
        </mxCell>
        <mxCell id="elKCPwu552f6HBRbaKEP-16" style="edgeStyle=orthogonalEdgeStyle;rounded=0;orthogonalLoop=1;jettySize=auto;html=1;exitX=1;exitY=1;exitDx=0;exitDy=0;" edge="1" parent="elKCPwu552f6HBRbaKEP-13" source="elKCPwu552f6HBRbaKEP-18">
          <mxGeometry relative="1" as="geometry">
            <mxPoint x="505" y="280" as="targetPoint" />
          </mxGeometry>
        </mxCell>
        <mxCell id="elKCPwu552f6HBRbaKEP-17" value="Нет" style="edgeLabel;html=1;align=center;verticalAlign=middle;resizable=0;points=[];" vertex="1" connectable="0" parent="elKCPwu552f6HBRbaKEP-16">
          <mxGeometry x="-0.1126" y="-1" relative="1" as="geometry">
            <mxPoint as="offset" />
          </mxGeometry>
        </mxCell>
        <mxCell id="elKCPwu552f6HBRbaKEP-18" value="sum(array2) = 0?" style="rhombus;whiteSpace=wrap;html=1;" vertex="1" parent="elKCPwu552f6HBRbaKEP-13">
          <mxGeometry x="247.5" y="130" width="120" height="120" as="geometry" />
        </mxCell>
        <mxCell id="elKCPwu552f6HBRbaKEP-19" value="Чё то там..." style="text;html=1;align=center;verticalAlign=middle;resizable=0;points=[];autosize=1;strokeColor=none;fillColor=none;" vertex="1" parent="elKCPwu552f6HBRbaKEP-13">
          <mxGeometry x="259" y="58" width="90" height="30" as="geometry" />
        </mxCell>
        <mxCell id="elKCPwu552f6HBRbaKEP-20" value="" style="edgeStyle=orthogonalEdgeStyle;rounded=0;orthogonalLoop=1;jettySize=auto;html=1;entryX=1;entryY=0.5;entryDx=0;entryDy=0;" edge="1" parent="elKCPwu552f6HBRbaKEP-13" source="elKCPwu552f6HBRbaKEP-21" target="elKCPwu552f6HBRbaKEP-18">
          <mxGeometry relative="1" as="geometry">
            <mxPoint x="495" y="520" as="targetPoint" />
            <Array as="points">
              <mxPoint x="625" y="410" />
              <mxPoint x="625" y="190" />
            </Array>
          </mxGeometry>
        </mxCell>
        <mxCell id="elKCPwu552f6HBRbaKEP-21" value="вывести array и array2" style="whiteSpace=wrap;html=1;" vertex="1" parent="elKCPwu552f6HBRbaKEP-13">
          <mxGeometry x="435" y="380" width="120" height="60" as="geometry" />
        </mxCell>
        <mxCell id="elKCPwu552f6HBRbaKEP-22" value="" style="shape=link;html=1;rounded=0;exitX=0.473;exitY=1.014;exitDx=0;exitDy=0;exitPerimeter=0;entryX=0.5;entryY=0;entryDx=0;entryDy=0;" edge="1" parent="1" source="elKCPwu552f6HBRbaKEP-8" target="elKCPwu552f6HBRbaKEP-13">
          <mxGeometry width="100" relative="1" as="geometry">
            <mxPoint x="390" y="400" as="sourcePoint" />
            <mxPoint x="490" y="400" as="targetPoint" />
          </mxGeometry>
        </mxCell>
        <mxCell id="elKCPwu552f6HBRbaKEP-23" value="break" style="whiteSpace=wrap;html=1;" vertex="1" parent="1">
          <mxGeometry x="140" y="830" width="120" height="60" as="geometry" />
        </mxCell>
        <mxCell id="elKCPwu552f6HBRbaKEP-24" value="" style="edgeStyle=orthogonalEdgeStyle;rounded=0;orthogonalLoop=1;jettySize=auto;html=1;" edge="1" parent="1" source="elKCPwu552f6HBRbaKEP-25" target="elKCPwu552f6HBRbaKEP-21">
          <mxGeometry relative="1" as="geometry" />
        </mxCell>
        <mxCell id="elKCPwu552f6HBRbaKEP-25" value="add(array1,array2, num1_len)" style="whiteSpace=wrap;html=1;" vertex="1" parent="1">
          <mxGeometry x="530" y="830" width="120" height="60" as="geometry" />
        </mxCell>
      </root>
    </mxGraphModel>
  </diagram>
</mxfile>
